<mxfile host="app.diagrams.net" agent="Mozilla/5.0 (Windows NT 10.0; Win64; x64) AppleWebKit/537.36 (KHTML, like Gecko) Chrome/135.0.0.0 Safari/537.36" version="26.2.10">
  <diagram id="C5RBs43oDa-KdzZeNtuy" name="Page-1">
    <mxGraphModel dx="1044" dy="562" grid="1" gridSize="10" guides="1" tooltips="1" connect="1" arrows="1" fold="1" page="1" pageScale="1" pageWidth="827" pageHeight="1169" math="0" shadow="0">
      <root>
        <mxCell id="WIyWlLk6GJQsqaUBKTNV-0" />
        <mxCell id="WIyWlLk6GJQsqaUBKTNV-1" parent="WIyWlLk6GJQsqaUBKTNV-0" />
        <mxCell id="UniS1nLERJJOshC_yrlD-7" value="" style="edgeStyle=orthogonalEdgeStyle;rounded=0;orthogonalLoop=1;jettySize=auto;html=1;" edge="1" parent="WIyWlLk6GJQsqaUBKTNV-1" source="UniS1nLERJJOshC_yrlD-0" target="UniS1nLERJJOshC_yrlD-2">
          <mxGeometry relative="1" as="geometry" />
        </mxCell>
        <mxCell id="UniS1nLERJJOshC_yrlD-0" value="INICIO" style="strokeWidth=2;html=1;shape=mxgraph.flowchart.start_1;whiteSpace=wrap;fillColor=#d5e8d4;strokeColor=#82b366;" vertex="1" parent="WIyWlLk6GJQsqaUBKTNV-1">
          <mxGeometry x="360" y="260" width="100" height="60" as="geometry" />
        </mxCell>
        <mxCell id="UniS1nLERJJOshC_yrlD-1" value="FIM" style="strokeWidth=2;html=1;shape=mxgraph.flowchart.start_1;whiteSpace=wrap;fillColor=#d5e8d4;strokeColor=#82b366;" vertex="1" parent="WIyWlLk6GJQsqaUBKTNV-1">
          <mxGeometry x="360" y="880" width="100" height="60" as="geometry" />
        </mxCell>
        <mxCell id="UniS1nLERJJOshC_yrlD-6" value="" style="edgeStyle=orthogonalEdgeStyle;rounded=0;orthogonalLoop=1;jettySize=auto;html=1;" edge="1" parent="WIyWlLk6GJQsqaUBKTNV-1" source="UniS1nLERJJOshC_yrlD-2" target="UniS1nLERJJOshC_yrlD-3">
          <mxGeometry relative="1" as="geometry" />
        </mxCell>
        <mxCell id="UniS1nLERJJOshC_yrlD-2" value="N1&lt;span style=&quot;color: rgba(0, 0, 0, 0); font-family: monospace; font-size: 0px; text-align: start; text-wrap-mode: nowrap;&quot;&gt;%3CmxGraphModel%3E%3Croot%3E%3CmxCell%20id%3D%220%22%2F%3E%3CmxCell%20id%3D%221%22%20parent%3D%220%22%2F%3E%3CmxCell%20id%3D%222%22%20value%3D%22%22%20style%3D%22strokeWidth%3D2%3Bhtml%3D1%3Bshape%3Dmxgraph.flowchart.start_1%3BwhiteSpace%3Dwrap%3BfillColor%3D%23d5e8d4%3BstrokeColor%3D%2382b366%3B%22%20vertex%3D%221%22%20parent%3D%221%22%3E%3CmxGeometry%20x%3D%22360%22%20y%3D%22260%22%20width%3D%22100%22%20height%3D%2260%22%20as%3D%22geometry%22%2F%3E%3C%2FmxCell%3E%3C%2Froot%3E%3C%2FmxGraphModel%3E&lt;/span&gt;" style="html=1;strokeWidth=2;shape=manualInput;whiteSpace=wrap;rounded=1;size=26;arcSize=11;fillColor=#dae8fc;strokeColor=#6c8ebf;" vertex="1" parent="WIyWlLk6GJQsqaUBKTNV-1">
          <mxGeometry x="360" y="350" width="100" height="60" as="geometry" />
        </mxCell>
        <mxCell id="UniS1nLERJJOshC_yrlD-5" value="" style="edgeStyle=orthogonalEdgeStyle;rounded=0;orthogonalLoop=1;jettySize=auto;html=1;" edge="1" parent="WIyWlLk6GJQsqaUBKTNV-1" source="UniS1nLERJJOshC_yrlD-3" target="UniS1nLERJJOshC_yrlD-4">
          <mxGeometry relative="1" as="geometry" />
        </mxCell>
        <mxCell id="UniS1nLERJJOshC_yrlD-3" value="N2" style="html=1;strokeWidth=2;shape=manualInput;whiteSpace=wrap;rounded=1;size=26;arcSize=11;fillColor=#dae8fc;strokeColor=#6c8ebf;" vertex="1" parent="WIyWlLk6GJQsqaUBKTNV-1">
          <mxGeometry x="360" y="440" width="100" height="60" as="geometry" />
        </mxCell>
        <mxCell id="UniS1nLERJJOshC_yrlD-10" style="edgeStyle=orthogonalEdgeStyle;rounded=0;orthogonalLoop=1;jettySize=auto;html=1;exitX=0;exitY=0.5;exitDx=0;exitDy=0;" edge="1" parent="WIyWlLk6GJQsqaUBKTNV-1" source="UniS1nLERJJOshC_yrlD-4" target="UniS1nLERJJOshC_yrlD-8">
          <mxGeometry relative="1" as="geometry" />
        </mxCell>
        <mxCell id="UniS1nLERJJOshC_yrlD-11" value="S" style="edgeLabel;html=1;align=center;verticalAlign=middle;resizable=0;points=[];" vertex="1" connectable="0" parent="UniS1nLERJJOshC_yrlD-10">
          <mxGeometry x="-0.3723" y="-4" relative="1" as="geometry">
            <mxPoint as="offset" />
          </mxGeometry>
        </mxCell>
        <mxCell id="UniS1nLERJJOshC_yrlD-4" value="N1 &amp;gt;N2" style="rhombus;whiteSpace=wrap;html=1;fillColor=#ffe6cc;strokeColor=#d79b00;strokeWidth=2;rounded=1;arcSize=11;" vertex="1" parent="WIyWlLk6GJQsqaUBKTNV-1">
          <mxGeometry x="370" y="570" width="80" height="80" as="geometry" />
        </mxCell>
        <mxCell id="UniS1nLERJJOshC_yrlD-8" value="N1" style="strokeWidth=2;html=1;shape=mxgraph.flowchart.display;whiteSpace=wrap;fillColor=#e1d5e7;strokeColor=#9673a6;" vertex="1" parent="WIyWlLk6GJQsqaUBKTNV-1">
          <mxGeometry x="250" y="670" width="100" height="60" as="geometry" />
        </mxCell>
        <mxCell id="UniS1nLERJJOshC_yrlD-9" value="N2" style="strokeWidth=2;html=1;shape=mxgraph.flowchart.display;whiteSpace=wrap;fillColor=#e1d5e7;strokeColor=#9673a6;" vertex="1" parent="WIyWlLk6GJQsqaUBKTNV-1">
          <mxGeometry x="470" y="670" width="100" height="60" as="geometry" />
        </mxCell>
        <mxCell id="UniS1nLERJJOshC_yrlD-12" style="edgeStyle=orthogonalEdgeStyle;rounded=0;orthogonalLoop=1;jettySize=auto;html=1;exitX=1;exitY=0.5;exitDx=0;exitDy=0;entryX=0.5;entryY=0;entryDx=0;entryDy=0;entryPerimeter=0;" edge="1" parent="WIyWlLk6GJQsqaUBKTNV-1" source="UniS1nLERJJOshC_yrlD-4" target="UniS1nLERJJOshC_yrlD-9">
          <mxGeometry relative="1" as="geometry" />
        </mxCell>
        <mxCell id="UniS1nLERJJOshC_yrlD-13" value="N" style="edgeLabel;html=1;align=center;verticalAlign=middle;resizable=0;points=[];" vertex="1" connectable="0" parent="UniS1nLERJJOshC_yrlD-12">
          <mxGeometry x="-0.4738" y="3" relative="1" as="geometry">
            <mxPoint as="offset" />
          </mxGeometry>
        </mxCell>
        <mxCell id="UniS1nLERJJOshC_yrlD-17" value="" style="edgeStyle=orthogonalEdgeStyle;rounded=0;orthogonalLoop=1;jettySize=auto;html=1;" edge="1" parent="WIyWlLk6GJQsqaUBKTNV-1" source="UniS1nLERJJOshC_yrlD-14" target="UniS1nLERJJOshC_yrlD-1">
          <mxGeometry relative="1" as="geometry" />
        </mxCell>
        <mxCell id="UniS1nLERJJOshC_yrlD-14" value="" style="verticalLabelPosition=bottom;verticalAlign=top;html=1;shape=mxgraph.flowchart.on-page_reference;fillColor=#f5f5f5;gradientColor=#b3b3b3;strokeColor=#666666;" vertex="1" parent="WIyWlLk6GJQsqaUBKTNV-1">
          <mxGeometry x="395" y="800" width="30" height="30" as="geometry" />
        </mxCell>
        <mxCell id="UniS1nLERJJOshC_yrlD-15" style="edgeStyle=orthogonalEdgeStyle;rounded=0;orthogonalLoop=1;jettySize=auto;html=1;exitX=0.5;exitY=1;exitDx=0;exitDy=0;exitPerimeter=0;entryX=0;entryY=0.5;entryDx=0;entryDy=0;entryPerimeter=0;" edge="1" parent="WIyWlLk6GJQsqaUBKTNV-1" source="UniS1nLERJJOshC_yrlD-8" target="UniS1nLERJJOshC_yrlD-14">
          <mxGeometry relative="1" as="geometry" />
        </mxCell>
        <mxCell id="UniS1nLERJJOshC_yrlD-16" style="edgeStyle=orthogonalEdgeStyle;rounded=0;orthogonalLoop=1;jettySize=auto;html=1;exitX=0.5;exitY=1;exitDx=0;exitDy=0;exitPerimeter=0;entryX=1;entryY=0.5;entryDx=0;entryDy=0;entryPerimeter=0;" edge="1" parent="WIyWlLk6GJQsqaUBKTNV-1" source="UniS1nLERJJOshC_yrlD-9" target="UniS1nLERJJOshC_yrlD-14">
          <mxGeometry relative="1" as="geometry" />
        </mxCell>
      </root>
    </mxGraphModel>
  </diagram>
</mxfile>
